<?xml version="1.0" encoding="UTF-8"?>
<!DOCTYPE svg PUBLIC "-//W3C//DTD SVG 1.1//EN" "http://www.w3.org/Graphics/SVG/1.1/DTD/svg11.dtd">
<!-- Creator: CorelDRAW X5 -->
<svg xmlns="http://www.w3.org/2000/svg" xml:space="preserve" width="567px" height="264px" style="shape-rendering:geometricPrecision; text-rendering:geometricPrecision; image-rendering:optimizeQuality; fill-rule:evenodd; clip-rule:evenodd"
viewBox="0 0 10796 5029"
 xmlns:xlink="http://www.w3.org/1999/xlink">
 <defs>
  <style type="text/css">
   <![CDATA[
    .fil2 {fill:#FEFEFE}
    .fil0 {fill:#009B63;fill-rule:nonzero}
    .fil1 {fill:#FEFEFE;fill-rule:nonzero}
   ]]>
  </style>
 </defs>
 <g id="Camada_x0020_1">
  <metadata id="CorelCorpID_0Corel-Layer"/>
  <path class="fil0" d="M831 4967c-424,0 -768,-345 -768,-769l0 -3367c0,-424 345,-769 768,-769l9134 0c424,0 769,345 769,769l0 4135 -9903 0z"/>
  <path class="fil1" d="M9965 0l-9134 0c-458,0 -831,373 -831,831l0 3367c0,458 373,831 831,831l9840 0 125 0 0 -125 0 -4073c0,-458 -373,-831 -831,-831zm0 125c390,0 706,316 706,706l0 4073 -9840 0c-390,0 -706,-316 -706,-706l0 -3367c0,-390 316,-706 706,-706l9134 0z"/>
  <polygon class="fil2" points="8695,1368 9069,1368 9628,2114 9255,2114 9535,2487 9069,2487 8789,2114 8975,2114 8696,1741 8975,1741 "/>
  <polygon class="fil2" points="8695,1368 8322,1368 7763,2114 8136,2114 7856,2487 8323,2487 8602,2114 8416,2114 8695,1741 8416,1741 "/>
  <polygon class="fil2" points="7564,1169 7499,1169 7499,3860 7564,3860 "/>
  <path class="fil2" d="M1569 1442l-401 0 0 634c0,308 229,428 520,428 316,0 523,-111 523,-449l0 -613 -392 0 0 620c0,102 -22,172 -127,172 -96,0 -124,-75 -124,-173l0 -619z"/>
  <path class="fil2" d="M2324 2486l377 0 0 -449c0,-45 0,-106 67,-106 66,0 66,61 66,106l0 449 377 0 0 -541c0,-151 -73,-256 -274,-256 -106,0 -209,43 -254,152l-3 0 0 -135 -356 0 0 779z"/>
  <path class="fil2" d="M3731 1364l-377 0 0 260 377 0 0 -260zm-377 1121l377 0 0 -779 -377 0 0 779z"/>
  <path class="fil2" d="M3854 2486l377 0 0 -449c0,-45 0,-106 67,-106 66,0 66,61 66,106l0 449 377 0 0 -449c0,-45 0,-106 66,-106 67,0 67,61 67,106l0 449 377 0 0 -467c0,-152 0,-330 -275,-330 -93,0 -224,43 -250,133l-3 0c-30,-93 -139,-133 -244,-133 -118,0 -221,43 -266,152l-3 0 0 -135 -356 0 0 779z"/>
  <path class="fil2" d="M6216 2187l0 -46c0,-263 -106,-451 -408,-451 -315,0 -483,132 -483,393 0,269 167,422 483,422 132,0 251,-14 351,-45l0 -202c-60,31 -153,49 -256,49 -111,0 -202,-22 -208,-120l521 0zm-522 -164c-5,-61 15,-154 101,-154 85,0 94,94 94,154l-196 0z"/>
  <path class="fil2" d="M6868 2093c0,73 -12,160 -93,160 -82,0 -96,-87 -96,-169 0,-81 14,-162 93,-162 84,0 96,81 96,171zm366 393l0 -1121 -377 0 0 443 -3 0c-58,-84 -135,-118 -235,-118 -235,0 -332,184 -332,395 0,226 93,420 342,420 123,0 199,-43 251,-160l3 0 0 142 350 0z"/>
  <polygon class="fil2" points="9628,2686 1169,2686 1169,2751 9628,2751 "/>
  <path class="fil2" d="M4191 3303l65 -6c3,26 10,47 21,64 11,17 29,30 52,40 24,10 50,15 80,15 26,0 49,-4 70,-12 20,-8 35,-19 45,-32 10,-14 15,-28 15,-45 0,-16 -5,-31 -14,-43 -9,-12 -25,-22 -47,-31 -14,-5 -45,-14 -93,-25 -48,-12 -81,-22 -100,-32 -25,-13 -43,-29 -56,-48 -12,-19 -18,-41 -18,-65 0,-26 7,-51 22,-74 15,-23 37,-40 65,-52 29,-12 60,-18 96,-18 39,0 73,6 102,19 29,12 52,31 68,55 16,24 24,52 26,82l-66 5c-4,-33 -16,-58 -36,-75 -20,-17 -51,-25 -91,-25 -42,0 -72,8 -91,23 -19,15 -29,34 -29,55 0,19 7,34 20,46 13,12 48,24 104,37 56,13 94,24 115,33 30,14 53,32 67,53 14,21 22,46 22,74 0,28 -8,54 -24,78 -16,24 -39,43 -68,57 -30,14 -63,20 -100,20 -47,0 -87,-7 -118,-21 -32,-14 -57,-34 -75,-62 -18,-28 -28,-59 -28,-94zm476 -21c0,-70 19,-122 58,-155 32,-28 72,-42 119,-42 52,0 94,17 127,51 33,34 49,81 49,141 0,49 -7,87 -22,115 -15,28 -36,49 -63,65 -28,15 -58,23 -91,23 -53,0 -95,-17 -128,-51 -33,-34 -49,-83 -49,-146zm66 0c0,48 11,84 32,108 21,24 48,36 80,36 32,0 58,-12 79,-36 21,-24 32,-61 32,-110 0,-47 -11,-82 -32,-106 -21,-24 -48,-36 -79,-36 -32,0 -58,12 -80,36 -21,24 -32,60 -32,108zm362 189l0 -377 57 0 0 57c15,-27 28,-44 41,-53 12,-8 26,-13 41,-13 22,0 43,7 66,21l-22 59c-16,-9 -31,-14 -47,-14 -14,0 -27,4 -38,13 -11,8 -19,20 -24,35 -7,23 -11,48 -11,75l0 197 -64 0zm219 -189c0,-70 19,-122 58,-155 32,-28 72,-42 119,-42 52,0 94,17 127,51 33,34 49,81 49,141 0,49 -7,87 -22,115 -15,28 -36,49 -63,65 -28,15 -58,23 -91,23 -53,0 -95,-17 -128,-51 -33,-34 -49,-83 -49,-146zm66 0c0,48 11,84 32,108 21,24 48,36 80,36 32,0 58,-12 79,-36 21,-24 32,-61 32,-110 0,-47 -11,-82 -32,-106 -21,-24 -48,-36 -79,-36 -32,0 -58,12 -80,36 -21,24 -32,60 -32,108zm609 50l63 8c-7,43 -24,77 -53,102 -28,24 -63,37 -104,37 -52,0 -93,-17 -124,-51 -31,-34 -47,-82 -47,-145 0,-41 7,-76 20,-107 14,-31 34,-53 62,-69 28,-15 58,-23 90,-23 41,0 75,10 100,31 26,21 43,50 50,88l-62 10c-6,-25 -16,-44 -31,-57 -15,-13 -33,-19 -55,-19 -32,0 -58,12 -79,35 -20,23 -30,60 -30,109 0,51 10,88 29,111 19,23 45,34 76,34 25,0 46,-8 63,-23 17,-15 28,-39 32,-71zm364 92c-24,20 -47,34 -68,43 -22,8 -45,12 -71,12 -41,0 -73,-10 -96,-30 -22,-20 -33,-46 -33,-78 0,-19 4,-35 13,-51 8,-15 19,-28 33,-37 14,-9 29,-16 46,-21 12,-3 31,-7 57,-10 52,-6 90,-13 114,-22 0,-9 0,-14 0,-17 0,-26 -6,-44 -18,-55 -16,-15 -41,-22 -73,-22 -30,0 -52,5 -67,16 -14,11 -25,29 -32,56l-62 -9c6,-27 15,-48 28,-65 13,-16 32,-29 57,-38 25,-9 53,-13 86,-13 32,0 58,4 78,11 20,8 35,17 44,29 9,11 16,26 20,43 2,11 3,31 3,59l0 85c0,60 1,97 4,113 3,16 8,31 16,45l-67 0c-7,-13 -11,-29 -13,-47zm-5 -143c-23,10 -58,18 -104,24 -26,4 -45,8 -56,13 -11,5 -19,12 -25,21 -6,9 -9,19 -9,30 0,17 7,31 19,43 13,11 32,17 57,17 25,0 47,-5 66,-16 19,-11 33,-26 42,-44 7,-14 10,-36 10,-64l0 -24zm223 189l-59 0 0 -521 64 0 0 186c27,-34 61,-51 103,-51 23,0 45,5 66,14 21,9 38,23 51,39 13,17 24,37 31,61 8,24 11,49 11,77 0,65 -16,115 -48,150 -32,35 -70,53 -115,53 -44,0 -79,-19 -105,-56l0 47zm-1 -191c0,45 6,78 18,98 20,33 47,49 82,49 28,0 52,-12 72,-36 20,-24 31,-60 31,-108 0,-49 -10,-86 -29,-109 -20,-23 -43,-35 -71,-35 -28,0 -52,12 -72,36 -20,24 -31,59 -31,105zm592 145c-24,20 -47,34 -68,43 -22,8 -45,12 -71,12 -41,0 -73,-10 -96,-30 -22,-20 -33,-46 -33,-78 0,-19 4,-35 13,-51 8,-15 19,-28 33,-37 14,-9 29,-16 46,-21 12,-3 31,-7 57,-10 52,-6 90,-13 114,-22 0,-9 0,-14 0,-17 0,-26 -6,-44 -18,-55 -16,-15 -41,-22 -73,-22 -30,0 -52,5 -67,16 -14,11 -25,29 -32,56l-62 -9c6,-27 15,-48 28,-65 13,-16 32,-29 57,-38 25,-9 53,-13 86,-13 32,0 58,4 78,11 20,8 35,17 44,29 9,11 16,26 20,43 2,11 3,31 3,59l0 85c0,60 1,97 4,113 3,16 8,31 16,45l-67 0c-7,-13 -11,-29 -13,-47zm-5 -143c-23,10 -58,18 -104,24 -26,4 -45,8 -56,13 -11,5 -19,12 -25,21 -6,9 -9,19 -9,30 0,17 7,31 19,43 13,11 32,17 57,17 25,0 47,-5 66,-16 19,-11 33,-26 42,-44 7,-14 10,-36 10,-64l0 -24z"/>
 </g>
</svg>
